<svg width="256" height="256" viewBox="0 0 256 256" fill="none" xmlns="http://www.w3.org/2000/svg">
<rect width="256" height="256" rx="61" fill="white"/>
<path d="M97.027 219.946C114.154 219.946 128.054 206.294 128.054 189.473V159H97.027C79.9001 159 66 172.652 66 189.473C66 206.294 79.9001 219.946 97.027 219.946Z" fill="#0ACF83"/>
<path d="M66 127.973C66 110.846 79.9001 96.946 97.027 96.946H128.054V159H97.027C79.9001 159 66 145.1 66 127.973Z" fill="#A259FF"/>
<path d="M66 66.473C66 49.6519 79.9001 36 97.027 36H128.054V96.9459H97.027C79.9001 96.9459 66 83.2941 66 66.473Z" fill="#F24E1E"/>
<path d="M128.054 36H158.527C175.348 36 189 49.6519 189 66.473C189 83.2941 175.348 96.9459 158.527 96.9459H128.054V36Z" fill="#FF7262"/>
<path d="M189 127.973C189 145.1 175.348 159 158.527 159C141.706 159 128.054 145.1 128.054 127.973C128.054 110.846 141.706 96.946 158.527 96.946C175.348 96.946 189 110.846 189 127.973Z" fill="#1ABCFE"/>
</svg>
