<svg width="256" height="256" viewBox="0 0 256 256" fill="none" xmlns="http://www.w3.org/2000/svg">
<rect width="256" height="256" rx="61" fill="white"/>
<path d="M72.7981 71.5061C78.2095 75.8996 80.2406 75.5661 90.4107 74.8846L186.271 69.1354C188.302 69.1354 186.612 67.1054 185.938 66.7719L170.008 55.2662C166.961 52.9027 162.892 50.1912 155.101 50.8654L62.2872 57.6369C58.9068 57.9704 58.225 59.6669 59.5742 61.0154L72.7981 71.5061ZM78.5505 93.8361V194.64C78.5505 200.056 81.2562 202.086 87.3567 201.745L192.706 195.655C198.806 195.321 199.488 191.595 199.488 187.194V87.0646C199.488 82.6711 197.798 80.3004 194.062 80.6339L83.9692 87.0646C79.907 87.4054 78.5505 89.4426 78.5505 93.8361ZM182.55 99.2373C183.225 102.282 182.55 105.327 179.503 105.675L174.426 106.69V181.104C170.015 183.475 165.953 184.831 162.565 184.831C157.14 184.831 155.783 183.134 151.721 178.066L118.52 125.968V176.37L129.023 178.748C129.023 178.748 129.023 184.838 120.551 184.838L97.1786 186.186C96.504 184.838 97.1786 181.452 99.5506 180.778L105.644 179.089V112.44L97.1931 111.758C96.5112 108.713 98.2086 104.32 102.945 103.979L128.015 102.29L162.573 155.062V108.372L153.759 107.365C153.085 103.638 155.79 100.934 159.178 100.6L182.55 99.2373ZM54.4964 48.5019L151.046 41.397C162.899 40.382 165.953 41.0562 173.403 46.4719L204.225 68.1204C209.303 71.8396 211 72.8546 211 76.9146V195.655C211 203.093 208.294 207.501 198.813 208.168L86.6821 214.94C79.5733 215.281 76.1784 214.266 72.4499 209.524L49.7524 180.089C45.6902 174.673 44 170.621 44 165.879V60.3339C44 54.2512 46.713 49.1689 54.4964 48.5019Z" fill="black"/>
</svg>
