<svg width="213" height="149" viewBox="0 0 213 149" fill="none" xmlns="http://www.w3.org/2000/svg">
<path d="M25 30H95V15L27.3372 19.375L25 30Z" fill="white"/>
<path d="M121 68H188.328L192 72L188.328 78H121V68Z" fill="white"/>
<path d="M113 20.3939L113 129L128 129L128 17L113 20.3939Z" fill="white"/>
<path d="M195.5 71.5L179.676 127.589L166.5 129.5L183.421 68.031L195.5 71.5Z" fill="white"/>
<path d="M195.5 71.5L180.467 19.5088L167.951 18.915L184.341 74.5838L195.5 71.5Z" fill="white"/>
<path d="M183 30H113V15L180.663 19.375L183 30Z" fill="white"/>
<path d="M181.142 118H113V133L179.5 128.625L181.142 118Z" fill="white"/>
<path d="M26 118H94V133L27.6381 128.625L26 118Z" fill="white"/>
<path d="M38 19L38 90L23 90L23 19.6208L38 19Z" fill="white"/>
<path d="M95 133L95 62L80 62L80 132L95 133Z" fill="white"/>
</svg>
